<mxfile host="app.diagrams.net" modified="2023-08-17T07:08:17.705Z" agent="Mozilla/5.0 (Windows NT 10.0; Win64; x64) AppleWebKit/537.36 (KHTML, like Gecko) Chrome/115.0.0.0 Safari/537.36" version="21.6.8" etag="ws5IPFBI0vUoWLy_BkOa" type="github">
  <diagram name="Page-1" id="XA7aWQ80kBtETChl4AgD">
    <mxGraphModel>
      <root>
        <mxCell id="0" />
        <mxCell id="1" parent="0" />
      </root>
    </mxGraphModel>
  </diagram>
</mxfile>
